#tb 0: 1/3
#media_type 0: video
#codec_id 0: rawvideo
#dimensions 0: 320x240
#sar 0: 1/1
0,          5,          5,        1,   115200, 0xeba70ff3
0,          6,          6,        1,   115200, 0xeba70ff3
0,          7,          7,        1,   115200, 0x8567f6cf
0,          8,          8,        1,   115200, 0x6fedfa63
0,          9,          9,        1,   115200, 0x04cab318
0,         10,         10,        1,   115200, 0xc2c4037c
